<svg xmlns="http://www.w3.org/2000/svg" xmlns:xlink="http://www.w3.org/1999/xlink" version="1.1" x="0px" y="0px" viewBox="0 0 66 82.5" enable-background="new 0 0 66 66" xml:space="preserve"><g><path d="M24.2,58.8c0,1.3,1.1,2.3,2.4,2.3h0.5c0.6,2.2,3,3.8,5.9,3.8s5.3-1.6,5.9-3.8h0.5c1.3,0,2.3-1,2.3-2.3v-7.2H24.2V58.8z"/><path d="M35.7,28.9c-0.4-0.2-0.9-1-2.7-3.1c-2.3,2.6-2.4,2.9-2.7,3.1l1.4,20.7h2.6L35.7,28.9z"/><path d="M33,1C20.7,1,10.7,11.4,10.7,24.1c0,6.5,2.6,12.7,7.2,17c2.2,2.1,3.5,4.7,3.6,7.6c0,0.5,0.5,0.9,1,0.9h7.2l-1.5-22.1   l-1.5-1.7l-3.2,3.8c-0.4,0.4-1,0.5-1.4,0.1c-0.4-0.4-0.5-1-0.1-1.4l4-4.7c0.4-0.5,1.1-0.5,1.5,0l2.4,2.8l2.4-2.8   c0.4-0.5,1.1-0.5,1.5,0l2.4,2.8l2.4-2.8c0.4-0.4,1.1-0.4,1.5,0l4,4.7c0.4,0.4,0.3,1.1-0.1,1.4c-0.2,0.2-0.4,0.2-0.6,0.2   c-0.3,0-0.6-0.1-0.8-0.4l-3.2-3.8l-1.5,1.7l-1.5,22.1h7.2c0.5,0,1-0.4,1-0.9c0.2-2.8,1.5-5.5,3.6-7.6c4.6-4.4,7.2-10.6,7.2-17   C55.3,11.4,45.3,1,33,1z"/></g><text x="0" y="81" fill="#000000" font-size="5px" font-weight="bold" font-family="'Helvetica Neue', Helvetica, Arial-Unicode, Arial, Sans-serif">Created by ProSymbols</text><text x="0" y="86" fill="#000000" font-size="5px" font-weight="bold" font-family="'Helvetica Neue', Helvetica, Arial-Unicode, Arial, Sans-serif">from the Noun Project</text></svg>